<svg id="Слой_1" data-name="Слой 1" xmlns="http://www.w3.org/2000/svg" viewBox="0 0 290.97 340.42"><defs><style>.cls-1{fill:#fff;}</style></defs><path class="cls-1" d="M118.54,349.63c-.28-5.32-.62-11.71-.56-16.46h-.17c-1.3,4.46-2.89,9.27-4.81,14.48l-6.74,18.5h-3.73L96.36,348c-1.81-5.38-3.33-10.3-4.41-14.82h-.11c-.12,4.75-.4,11.14-.74,16.86l-1,16.35H85.39l2.66-38.14h6.28l6.5,18.45c1.59,4.69,2.89,8.88,3.85,12.84h.17c1-3.85,2.32-8,4-12.84l6.79-18.45h6.28l2.37,38.14H119.5Z" transform="translate(-48.51 -26.58)"/><path class="cls-1" d="M137.62,354.38l-4,12h-5.09l13-38.14h5.94l13,38.14h-5.26l-4.07-12Zm12.5-3.85-3.74-11c-.84-2.49-1.41-4.75-2-7h-.11c-.56,2.26-1.19,4.58-1.92,6.9l-3.74,11Z" transform="translate(-48.51 -26.58)"/><path class="cls-1" d="M186.33,328.24v4.13H171v34h-4.92V328.24Z" transform="translate(-48.51 -26.58)"/><path class="cls-1" d="M192.16,354.38l-4,12h-5.09l13-38.14H202l13,38.14h-5.26l-4.07-12Zm12.51-3.85-3.74-11c-.84-2.49-1.41-4.75-2-7h-.11c-.56,2.26-1.19,4.58-1.92,6.9l-3.74,11Z" transform="translate(-48.51 -26.58)"/><path class="cls-1" d="M219.72,330.51a18.09,18.09,0,0,1,10.07-2.89c6.62,0,11.21,3.45,11.21,9.34,0,4.69-3.4,8.26-7.87,9.28v.11c5.38.56,9.28,4.07,9.28,9.56,0,7.92-6.85,11.09-13.8,11.09a19.45,19.45,0,0,1-10-2.49l1.3-3.85a18.47,18.47,0,0,0,8.54,2.32c5.66,0,8.77-3.05,8.77-7.24,0-5.71-5.49-7.35-10.35-7.35h-2.27v-3.74h2.27c5,0,8.94-3.11,8.94-7s-2.72-6-6.85-6a15.66,15.66,0,0,0-7.92,2.49Z" transform="translate(-48.51 -26.58)"/><path class="cls-1" d="M253.67,328.24v16.07c0,6-.11,11-.45,16.13l.11.05c1.93-4,4.3-8.09,7.08-12.61l12.33-19.64h4.92v38.14H273V350.14c0-6.17.06-10.69.46-15.5l-.17-.06a114.94,114.94,0,0,1-7.08,12.84l-11.93,19H249V328.24Z" transform="translate(-48.51 -26.58)"/><path class="cls-1" d="M291.19,328.24v16h18.44v-16h5v38.14h-5V348.5H291.19v17.88h-4.92V328.24Z" transform="translate(-48.51 -26.58)"/><polygon class="cls-1" points="175.41 164.11 174.51 161 162.06 164.59 159.07 154.24 170.24 151.01 169.35 147.94 158.19 151.17 155.57 142.09 167.37 138.68 166.47 135.57 150.96 140.05 159.25 168.78 175.41 164.11"/><path class="cls-1" d="M232.78,180l10.56-.87,3.95,9.1,4.11-.33L238.78,158.9l-4.64.38-7.66,30.62,4-.33ZM235.53,168c.42-1.86.76-3.71,1.06-5.51h.08c.59,1.69,1.18,3.42,2,5.31l3.62,8.33-9,.74Z" transform="translate(-48.51 -26.58)"/><path class="cls-1" d="M273.15,182.28c.52-4.36-1.74-7.08-6.53-9.62-3.91-2.07-5.55-3.65-5.22-6.43.24-2,2.07-4.26,6.12-3.78a12,12,0,0,1,5.47,2.08l1.43-3A13.62,13.62,0,0,0,268,159.3c-5.77-.69-10,2.29-10.56,6.91-.5,4.19,2.2,7,6.84,9.35,3.82,2,5.22,3.79,4.89,6.56-.36,3-2.89,4.8-6.81,4.33a13.61,13.61,0,0,1-6.64-2.76l-1.35,3.1a15.38,15.38,0,0,0,7.34,2.84C268.74,190.47,272.61,186.86,273.15,182.28Z" transform="translate(-48.51 -26.58)"/><path class="cls-1" d="M283.67,193.53l3.72,1.17,3.83-12.13,14.72-13.35-4.19-1.32-6.58,6.57c-1.78,1.81-3.34,3.36-4.73,5l-.09,0c-.26-2.27-.56-4.27-1-6.77l-1.53-9.13-4.19-1.33,3.83,19.26Z" transform="translate(-48.51 -26.58)"/><path class="cls-1" d="M149.3,170c-1.44,0-2.08.8-2.08,1.6a1.74,1.74,0,0,0,.64,1.44,4.6,4.6,0,0,1,1,3c0,62.49-14.1,112.64-16.66,115.2a1.3,1.3,0,0,1-.65.33c-4,0-4-44.87-4-66.18v-8.17c0-6.73-7.69-10.26-13.3-10.26a6.91,6.91,0,0,0-4.81,1.44c-1.92,1.93-11.7,23.56-17.14,43.75-4.49-36.06-13.46-68.1-23.4-68.1-10.25,0-20.35,10.09-20.35,13.94,0,.8.64,1.44,1.77,1.44,3.36,0,25.16,12.66,25.16,96.62,0,5.45,8.81,9.3,14.9,9.3,3.2,0,5.45-1.13,5.45-3.37,0-9-.81-21-1.45-30.6,2.24-16.67,10.58-33.81,14.42-44.23,0,33,.64,72.91,6.41,78.19,2.56,2.25,8.17,6.41,13.62,6.41,10.41,0,36.05-88,36.05-127.86C164.84,177.22,156,170,149.3,170Z" transform="translate(-48.51 -26.58)"/><path class="cls-1" d="M180.39,215c7.05,0,7.85-10.73,10.26-13.14a3.24,3.24,0,0,0,1-2.24c0-5.13-3.21-9.45-8.82-9.45-2.4,0-7.21,1.76-9.13,3.68s-2.72,3.85-2.72,9.14C170.94,210.71,177.35,215,180.39,215Z" transform="translate(-48.51 -26.58)"/><path class="cls-1" d="M339.35,257.23c-.26-3.19-2.73-6.4-4.49-6.4-.8,0-1.28.48-1.44,1.92-.48,4.81-3.13,35.6-11.48,47.88-1.89,2.78-10.15,4.45-10.15-15.09,0-51,14.1-88,14.1-91.5,0-2.4-5.93-8.49-11.38-8.49a6.6,6.6,0,0,0-4.81,2.08c-2.56,2.57-7.21,21.47-10.09,44.87a12,12,0,0,0-8.49-4.17c-12.3,0-27.08,10.58-27.54,55.81-2.11,9.08-5.28,17.9-9.64,17.9-5.45,0-7.05-9.13-7.05-20.51,0-16.5,3.36-37.81,3.36-42.62,0-3.37-4.16-10.74-18.42-10.74-5.29,0-14.11,16.35-20.83,32.37-1.13-13.3-3.69-26.28-9.62-32.21-3.68-3.68-6.89-3.84-8.49-3.84a4.44,4.44,0,0,0-4,4c0,1.93,6.25,6.73,6.25,15.38,0,22.87-1.75,33.05-3,39.46-1.74,6.06-4.8,12-10.27,12-1.92,0-2.56-5.29-2.56-12.34,0-14.58,2.72-37,2.72-37s1.13-.64,1.13-2.89c0-3.2-.81-5.12-2.25-6.57a13.63,13.63,0,0,0-9-3.68,6.73,6.73,0,0,0-4.33,1.44c-2.4,2.24-4.32,18.43-4.32,34.13,0,13.62,1.44,26.92,5.12,30.61,4.49,4.48,10.74,7.69,13.3,7.69,4.23,0,8.39-3.14,11.64-7.82,3.51,4.54,9.92,7.66,14.16,7.66,3,0,3.85-2.25,3.85-4.33a4.87,4.87,0,0,0-.81-3s.81-9,1-20.67c4.8-22.12,15.7-42.47,18.58-42.47.48,0,.64.64.64,1.61,0,5-4.32,20.67-4.32,35.09,0,24,9.61,40.38,24.35,40.38,7.64,0,12.51-5.64,15.7-13,2.91,5.7,8.19,9.51,16.67,9.51,5.13,0,10.42-17.15,14.1-32.05.32,15.71,2.33,22.37,5.77,26.87,5.39,7.05,12.19,10.6,17.4,8.36,14.28-6.14,18.09-34.81,18.89-46.51A57.91,57.91,0,0,0,339.35,257.23Zm-41.5-6c-1.77,10.73-10.1,49.51-14.59,49.51-2.24,0-3.36-2.73-3.36-11.06,0-25,5.93-54.16,13.62-54.16,3,0,4.33,4.81,4.81,9.46Z" transform="translate(-48.51 -26.58)"/><g id="wind_indicator"><rect class="cls-1" x="201.47" y="80.66" width="3.52" height="35.4"/><path class="cls-1" d="M253,89.28v-2.2h-2.51v.37l-10.29,1V82s1.43-.61,1.81-.87c7.1-4.16,11.32-15.64,9.14-28.91-2.56-15.65-12.34-27.09-21.84-25.53a11.66,11.66,0,0,0-2.53.74L197.6,43.4c-2.51,1.56-2.72,7.15-2.72,7.15A41.57,41.57,0,0,0,206.35,81.4s3.7,4.11,6.76,3.87l24.37-2.54.34,0h.09l.3-.06a.08.08,0,0,0,.06,0,1.5,1.5,0,0,0,.29-.06v6.52a1,1,0,0,0,1,1h0l9.15-.82v18h5.9v-18ZM223.58,56.42c-2.19-13.45,1.47-25.25,8.2-26.36S245.75,39,248,52.42s-1.46,25.25-8.19,26.36S225.8,69.86,223.58,56.42Z" transform="translate(-48.51 -26.58)"/><path class="cls-1" d="M179.53,57.82l.26-4.55-20.7,11.45c-3.39,1.54-3.94,7-3.94,7a21.51,21.51,0,0,0,5.54,15.69s4.27,5.24,8.13,4.71l26-3.73s-4.85-3.57-6.27-5C181.78,76.75,179.38,67.11,179.53,57.82Z" transform="translate(-48.51 -26.58)"/><path class="cls-1" d="M145,72.69l-28.74,16h0c-1.32,9.79,5.93,13.11,5.93,13.11l32.59-6.58s-2.56-1.56-3.33-2.19C141.49,84.86,145,72.69,145,72.69Z" transform="translate(-48.51 -26.58)"/></g><path class="cls-1" d="M324.57,176.71a11,11,0,1,1,11-11A11,11,0,0,1,324.57,176.71Zm0-20.84a9.83,9.83,0,1,0,9.82,9.83A9.84,9.84,0,0,0,324.57,155.87Z" transform="translate(-48.51 -26.58)"/><path class="cls-1" d="M321.17,160.17a16,16,0,0,1,2.87-.24,4.73,4.73,0,0,1,3.34.95,2.87,2.87,0,0,1,.9,2.19,3.05,3.05,0,0,1-2.17,3v0a2.87,2.87,0,0,1,1.69,2.33,18.85,18.85,0,0,0,.89,3.17h-1.54a16,16,0,0,1-.77-2.76c-.34-1.59-1-2.19-2.31-2.25h-1.41v5h-1.49Zm1.49,5.26h1.53c1.59,0,2.6-.87,2.6-2.19,0-1.49-1.08-2.14-2.65-2.16a6.07,6.07,0,0,0-1.48.14Z" transform="translate(-48.51 -26.58)"/></svg>